# xmcd
# Track frame offsets:
# 150
# 21447
# 34160
# 50200
# 66202
# 77170
# 89192
# 103642
# 120297
# 133442
# 146407
# 159935
# 177492
# 194052
#
# Disc length: 2749 seconds
# Revision: 0
# Processed by: cddbd v1.4PL0 Copyright (c) Steve Scherf et al.
# Submitted via: VisiTrax 2.9.5.180 - For more info visit www.synapsa.com
#
DISCID=d30abb0e
DTITLE=Various Artist - Mr.Music Country 7-91
DYEAR=1991
DGENRE=
TTITLE0=K.T.Oslin - Cornell Crawford
TTITLE1=Alan Jackson - Don´t Rock The Jukebox
TTITLE2=Lorrie Morrgan - A Picture Of Me Without You
TTITLE3=Keith Whitley - I´m No Stranger To The Rain
TTITLE4=Barabara Richardson - When You Love A Man
TTITLE5=Jason Hawkins - If I Ever Cheated On You
TTITLE6=Karen Donaovan - Right Down To My Soul
TTITLE7=Paul Overstreet - Billy Can´t Read
TTITLE8=Becky Hobbs - Jones On The Jukebox
TTITLE9=Alberta Babcock - You´ve Already Broken My Heart
TTITLE10=Aaron Tippin - You´ve Got To Stand For Somethung
TTITLE11=Mark Collie - Ballad Of Thunder Road
TTITLE12=Pam Tillies - Blue Rose Is
TTITLE13=George Strait - Hollywood Squares
EXTD=
EXTT0=
EXTT1=
EXTT2=
EXTT3=
EXTT4=
EXTT5=
EXTT6=
EXTT7=
EXTT8=
EXTT9=
EXTT10=
EXTT11=
EXTT12=
EXTT13=
PLAYORDER=
